<?xml version="1.0" encoding="iso-8859-1"?>
<!-- Generator: Adobe Illustrator 19.0.0, SVG Export Plug-In . SVG Version: 6.00 Build 0)  -->
<svg version="1.1" id="Layer_1" xmlns="https://www.w3.org/2000/svg" xmlns:xlink="https://www.w3.org/1999/xlink" x="0px" y="0px"
	 viewBox="0 0 512.001 512.001" style="enable-background:new 0 0 512.001 512.001;" xml:space="preserve">
<path style="fill:#8CC63F;" d="M424.549,168.809c-24.68-13.494-57.45-11.496-90.437-1.516
	c24.155-23.969,41.244-51.465,41.244-79.284c0-42.939-29.565-77.749-66.035-77.749c-29.176,0-52.829,27.847-52.829,62.199
	c0-34.352-23.653-62.199-52.829-62.199c-36.47,0-66.035,34.809-66.035,77.749c0,27.819,17.09,55.315,41.244,79.284
	c-32.986-9.98-65.756-11.977-90.437,1.516c-37.676,20.599-54.037,63.238-36.542,95.238c13.996,25.601,49.776,32.994,79.918,16.515
	c-30.141,16.479-43.229,50.591-29.233,76.19c17.495,32.001,62.221,41.243,99.897,20.644c28.529-15.598,45.471-51.465,54.016-91.11
	c8.545,39.645,25.487,75.512,54.016,91.11c37.676,20.599,82.402,11.356,99.897-20.644c13.996-25.6,0.908-59.711-29.233-76.19
	c30.141,16.479,65.922,9.084,79.918-16.515C478.586,232.047,462.225,189.407,424.549,168.809z"/>
<path d="M428.4,159.659c-18.397-10.059-42.052-12.977-69.391-8.727c16.374-21.644,24.909-43.471,24.909-64.129
	c0-17.158-4.314-33.747-12.479-47.975c-2.488-4.336-8.019-5.835-12.357-3.347c-4.337,2.489-5.835,8.021-3.346,12.358
	c6.592,11.49,10.077,24.963,10.077,38.965c0,28.587-20.973,55.4-38.568,72.857c-2.95,2.928-3.528,7.491-1.398,11.063
	c2.129,3.572,6.417,5.231,10.396,4.029c24.087-7.287,58.122-13.065,83.472,0.794c33.235,18.171,48.012,55.383,32.941,82.952
	c-11.578,21.179-41.919,26.973-67.631,12.916c-4.387-2.4-9.887-0.786-12.287,3.601c-0.753,1.38-1.112,2.869-1.111,4.338
	c0,3.201,1.703,6.305,4.711,7.947c12.696,6.941,22.305,17.586,27.059,29.975c4.553,11.869,4.047,23.918-1.428,33.93
	c-7.166,13.106-20.046,22.171-36.269,25.523c-16.766,3.467-34.999,0.454-51.341-8.48c-16.12-8.814-37.796-30.727-49.509-85.073
	c-0.899-4.169-4.586-7.146-8.85-7.146c-4.265,0-7.951,2.977-8.85,7.146c-11.715,54.345-33.39,76.259-49.51,85.073
	c-4.388,2.398-5.999,7.899-3.601,12.286c2.398,4.388,7.899,6,12.286,3.601c15.706-8.587,27.597-22.139,36.598-37.506
	c-6.826,44.711-24.446,105.149-69.224,149.917c-3.536,3.534-3.537,9.267-0.001,12.802c1.767,1.768,4.085,2.652,6.402,2.652
	c2.316,0,4.633-0.884,6.401-2.651c44.851-44.84,63.812-103.597,71.821-144.991c2.042-10.558,3.493-20.497,4.527-29.556
	c9.517,20.103,23.19,38.596,42.826,49.332c14.596,7.98,30.516,12.098,46.169,12.098c5.907,0,11.777-0.587,17.522-1.774
	c21.514-4.446,38.735-16.723,48.493-34.569c8.066-14.752,8.932-32.189,2.443-49.102c-1.832-4.775-4.193-9.345-7.026-13.647
	c23.189,0.246,44.564-10.38,55.268-29.958C488.404,230.853,470.396,182.619,428.4,159.659z"/>
<path d="M181.885,384.753c-0.774-4.939-5.405-8.314-10.346-7.543c-26.464,4.149-50.604-6.062-61.509-26.008
	c-11.579-21.179-0.08-49.846,25.632-63.905c3.008-1.644,4.711-4.746,4.712-7.949c0-1.468-0.357-2.959-1.112-4.337
	c-2.398-4.388-7.899-6-12.286-3.601c-12.696,6.941-26.845,9.284-39.838,6.599c-12.45-2.573-22.32-9.503-27.794-19.515
	c-15.071-27.568-0.295-64.781,32.941-82.952c25.351-13.86,59.384-8.083,83.472-0.794c3.979,1.202,8.268-0.457,10.398-4.029
	s1.552-8.133-1.399-11.063c-17.594-17.459-38.567-44.272-38.567-72.857c0-37.878,25.562-68.694,56.982-68.694
	c24.138,0,43.776,23.841,43.776,53.146c0,5,4.053,9.053,9.053,9.053c5.001,0,9.053-4.053,9.053-9.053
	c0-29.305,19.637-53.146,43.776-53.146c9.393,0,18.343,2.677,26.599,7.957c4.213,2.694,9.81,1.464,12.504-2.75
	c2.693-4.213,1.463-9.81-2.749-12.504C334.126,3.738,321.556,0,308.83,0c-22.336,0-41.947,13.698-52.829,34.179
	C245.119,13.698,225.509,0,203.173,0c-41.404,0-75.089,38.939-75.089,86.802c0,20.658,8.534,42.485,24.909,64.129
	c-27.346-4.254-50.994-1.331-69.392,8.727c-41.996,22.96-60.003,71.195-40.141,107.524c8.064,14.752,22.276,24.895,40.016,28.56
	c5.008,1.034,10.135,1.51,15.281,1.451c-12.721,19.364-15.316,43.115-4.612,62.694c12.531,22.919,37.449,36.347,65.795,36.345
	c4.718,0,9.536-0.373,14.403-1.135C179.282,394.324,182.658,389.693,181.885,384.753z"/>
<g>
</g>
<g>
</g>
<g>
</g>
<g>
</g>
<g>
</g>
<g>
</g>
<g>
</g>
<g>
</g>
<g>
</g>
<g>
</g>
<g>
</g>
<g>
</g>
<g>
</g>
<g>
</g>
<g>
</g>
</svg>
